#!OML:ASF E:\VariousWalksJay\Project 1\Capture day 1\Session 1\Actor2.ASF
:FULLY-SPECIFIED
:DEGREES
582
root 10.4738 15.8666 3.9134 21.5359 -42.5503 0.537998
lowerback 20.3344 -5.1204 6.36244
upperback 14.2282 -6.14101 -2.7046
thorax 3.33901 -2.71317 -5.40945
lowerneck 1.46361 2.20032 3.18432
upperneck -7.83086 2.92431 -2.1093
head -2.66005 1.42489 -1.30427
rclavicle 5.00937e-014 -6.75868e-015
rhumerus -50.6683 22.8904 -89.6239
rradius 86.0081
rwrist 16.8194
rhand -50.0056 11.7921
rfingers 7.12502
rthumb -22.5945 -16.9056
lclavicle 5.00937e-014 -6.75868e-015
lhumerus 21.4843 -45.7196 66.6461
lradius 91.2211
lwrist 41.2939
lhand -46.4414 1.97271
lfingers 7.12502
lthumb -19.1702 31.0479
rfemur -67.1808 1.0659 28.5926
rtibia 54.7229
rfoot -13.1145 -12.8676
rtoes 4.15213
lfemur -15.4189 11.3566 -26.221
ltibia 53.4065
lfoot 4.32073 -19.6567
ltoes -10.568
583
root 10.4224 15.874 3.98399 21.7073 -42.7194 0.470883
lowerback 20.5737 -5.11593 6.38699
upperback 14.2591 -6.12075 -2.73728
thorax 3.25421 -2.70383 -5.44678
lowerneck 1.37712 2.2457 3.2223
upperneck -7.97817 2.97776 -2.17998
head -2.69073 1.45105 -1.3359
rclavicle 1.35174e-014 1.63003e-014
rhumerus -50.2848 23.0788 -89.5691
rradius 86.1167
rwrist 16.8553
rhand -49.8882 11.6996
rfingers 7.12502
rthumb -22.4818 -17.0118
lclavicle 1.35174e-014 1.63003e-014
lhumerus 21.8969 -45.4237 66.1027
lradius 91.2658
lwrist 41.5942
lhand -46.576 1.92633
lfingers 7.12502
lthumb -19.2996 30.9886
rfemur -67.0854 1.29662 28.4679
rtibia 55.0026
rfoot -13.5924 -12.8367
rtoes 4.06363
lfemur -16.3885 11.3072 -26.0832
ltibia 54.9308
lfoot 5.38551 -19.4138
ltoes -10.6269
584
root 10.3733 15.8786 4.05085 21.8542 -42.843 0.406581
lowerback 20.8688 -5.12363 6.39605
upperback 14.2902 -6.11415 -2.74758
thorax 3.14416 -2.70421 -5.44452
lowerneck 1.28912 2.28942 3.25816
upperneck -8.13168 3.02741 -2.26708
head -2.72317 1.47581 -1.37255
rclavicle 1.61413e-013 -2.78299e-015
rhumerus -49.8671 23.2831 -89.4755
rradius 86.2648
rwrist 16.8844
rhand -49.7686 11.5718
rfingers 7.12502
rthumb -22.3669 -17.1534
lclavicle 1.61413e-013 -2.78299e-015
lhumerus 22.3945 -45.0942 65.4733
lradius 91.3091
lwrist 41.947
lhand -46.6662 1.97187
lfingers 7.12502
lthumb -19.3864 31.0255
rfemur -67.0011 1.52104 28.3291
rtibia 55.3139
rfoot -14.0822 -12.819
rtoes 4.03175
lfemur -17.5005 11.274 -25.9243
ltibia 56.7279
lfoot 6.06841 -19.1315
ltoes -10.8394
585
root 10.3264 15.8799 4.11415 21.971 -42.9174 0.340452
lowerback 21.2239 -5.14386 6.39242
upperback 14.3226 -6.121 -2.72899
thorax 3.00865 -2.71428 -5.39691
lowerneck 1.21231 2.33059 3.27704
upperneck -8.30134 3.07191 -2.36792
head -2.76331 1.49888 -1.41119
rclavicle 7.87187e-014 -1.98785e-015
rhumerus -49.4233 23.5111 -89.3345
rradius 86.4619
rwrist 16.9002
rhand -49.6418 11.4187
rfingers 7.12502
rthumb -22.2453 -17.3211
lclavicle 7.87187e-014 -1.98785e-015
lhumerus 22.978 -44.7265 64.7675
lradius 91.3535
lwrist 42.3495
lhand -46.6961 2.14106
lfingers 7.12502
lthumb -19.4151 31.1918
rfemur -66.9225 1.72746 28.1915
rtibia 55.6639
rfoot -14.582 -12.8141
rtoes 4.02137
lfemur -18.7397 11.2605 -25.7389
ltibia 58.7878
lfoot 6.32841 -18.8463
ltoes -11.2292
586
root 10.2817 15.8772 4.17352 22.0709 -42.9529 0.257589
lowerback 21.643 -5.16395 6.36962
upperback 14.3536 -6.12585 -2.6735
thorax 2.84673 -2.72718 -5.29444
lowerneck 1.14447 2.3649 3.28371
upperneck -8.48966 3.10525 -2.48472
head -2.81175 1.51718 -1.45328
rclavicle 2.62396e-014 7.95139e-014
rhumerus -48.9602 23.7534 -89.1379
rradius 86.7147
rwrist 16.8995
rhand -49.5117 11.2357
rfingers 7.12502
rthumb -22.1204 -17.5189
lclavicle 2.62396e-014 7.95139e-014
lhumerus 23.6616 -44.3252 63.9796
lradius 91.4033
lwrist 42.8057
lhand -46.7039 2.37841
lfingers 7.12502
lthumb -19.4226 31.4284
rfemur -66.8555 1.92221 28.0737
rtibia 56.0546
rfoot -15.0902 -12.8211
rtoes 4.03151
lfemur -20.1113 11.2748 -25.52
ltibia 61.0988
lfoot 6.18814 -18.5968
ltoes -11.8019
587
root 10.239 15.8702 4.22911 22.1443 -42.947 0.161452
lowerback 22.1343 -5.18313 6.32259
upperback 14.3794 -6.12774 -2.5766
thorax 2.65145 -2.74312 -5.12882
lowerneck 1.09734 2.39232 3.27006
upperneck -8.69718 3.12752 -2.61521
head -2.87106 1.53106 -1.49699
rclavicle -4.77083e-015 -1.27222e-014
rhumerus -48.495 24.0182 -88.881
rradius 87.038
rwrist 16.8714
rhand -49.3764 11.0319
rfingers 7.12502
rthumb -21.9904 -17.7381
lclavicle -4.77083e-015 -1.27222e-014
lhumerus 24.4269 -43.8862 63.1403
lradius 91.4597
lwrist 43.3022
lhand -46.69 2.69476
lfingers 7.12502
lthumb -19.4093 31.7461
rfemur -66.7923 2.09351 27.9843
rtibia 56.4863
rfoot -15.6071 -12.8428
rtoes 4.06112
lfemur -21.6012 11.3085 -25.2658
ltibia 63.6402
lfoot 5.70057 -18.4128
ltoes -12.4994
588
root 10.1982 15.8588 4.28129 22.1826 -42.9034 0.0478376
lowerback 22.7131 -5.19578 6.24688
upperback 14.3986 -6.11944 -2.43277
thorax 2.41641 -2.75914 -4.89221
lowerneck 1.07144 2.41058 3.23436
upperneck -8.91952 3.13532 -2.76102
head -2.94008 1.53908 -1.54245
rclavicle -1.74931e-014 1.15693e-013
rhumerus -48.0385 24.308 -88.5568
rradius 87.4417
rwrist 16.8037
rhand -49.2261 10.7978
rfingers 7.12502
rthumb -21.8461 -17.989
lclavicle -1.74931e-014 1.15693e-013
lhumerus 25.2698 -43.4118 62.2653
lradius 91.522
lwrist 43.8355
lhand -46.6461 3.07995
lfingers 7.12502
lthumb -19.367 32.1355
rfemur -66.7177 2.23542 27.9373
rtibia 56.9559
rfoot -16.1287 -12.8895
rtoes 4.06357
lfemur -23.1913 11.3632 -24.9707
ltibia 66.3876
lfoot 4.93831 -18.312
ltoes -13.3029
589
root 10.1589 15.8429 4.32988 22.1855 -42.8262 -0.0860729
lowerback 23.414 -5.18307 6.08553
upperback 14.3965 -6.08376 -2.19607
thorax 2.12016 -2.77292 -4.50416
lowerneck 1.0559 2.419 3.1379
upperneck -9.14212 3.12405 -2.94292
head -3.01226 1.54114 -1.58906
rclavicle -8.50798e-014 5.68524e-014
rhumerus -47.6029 24.6652 -88.1005
rradius 87.9422
rwrist 16.677
rhand -49.045 10.5253
rfingers 7.12502
rthumb -21.6722 -18.2817
lclavicle -8.50798e-014 5.68524e-014
lhumerus 26.1549 -42.8833 61.4513
lradius 91.5852
lwrist 44.3774
lhand -46.5865 3.51174
lfingers 7.12502
lthumb -19.3097 32.573
rfemur -66.6275 2.34409 27.9444
rtibia 57.4601
rfoot -16.6532 -12.9666
rtoes 4.02284
lfemur -24.8783 11.4325 -24.633
ltibia 69.3177
lfoot 3.97318 -18.2918
ltoes -14.2234
590
root 10.1211 15.8223 4.37504 22.153 -42.727 -0.239722
lowerback 24.2418 -5.13606 5.8317
upperback 14.3653 -6.0117 -1.8671
thorax 1.7539 -2.77991 -3.96386
lowerneck 1.05328 2.41662 2.98568
upperneck -9.35389 3.09244 -3.1611
head -3.08437 1.53674 -1.63758
rclavicle 5.08889e-014 -3.22031e-014
rhumerus -47.2022 25.0906 -87.5155
rradius 88.5436
rwrist 16.4894
rhand -48.8283 10.2228
rfingers 7.12502
rthumb -21.4641 -18.6081
lclavicle 5.08889e-014 -3.22031e-014
lhumerus 27.0595 -42.3027 60.7183
lradius 91.6507
lwrist 44.9191
lhand -46.4753 4.0317
lfingers 7.12502
lthumb -19.2028 33.1037
rfemur -66.5194 2.4216 28.0105
rtibia 57.9965
rfoot -17.1725 -13.0847
rtoes 3.85426
lfemur -26.6596 11.5254 -24.2566
ltibia 72.4052
lfoot 2.8709 -18.3311
ltoes -15.1923
591
root 10.0846 15.7966 4.41625 22.1061 -42.6252 -0.430311
lowerback 24.9817 -5.09242 5.6566
upperback 14.4184 -5.94488 -1.60207
thorax 1.51588 -2.77741 -3.54799
lowerneck 1.08953 2.4118 2.88678
upperneck -9.65743 3.06269 -3.32161
head -3.19565 1.52953 -1.6796
rclavicle 2.46493e-014 -7.99114e-014
rhumerus -46.6873 25.4845 -86.9806
rradius 89.2071
rwrist 16.2675
rhand -48.572 9.90063
rfingers 7.12502
rthumb -21.2179 -18.9581
lclavicle 2.46493e-014 -7.99114e-014
lhumerus 28.1762 -41.6618 59.7079
lradius 91.729
lwrist 45.4787
lhand -46.2923 4.6694
lfingers 7.12502
lthumb -19.0268 33.7588
rfemur -66.402 2.49015 28.143
rtibia 58.5638
rfoot -17.6896 -13.2397
rtoes 3.5766
lfemur -28.5485 11.6663 -23.8359
ltibia 75.6315
lfoot 1.66797 -18.381
ltoes -16.2075
592
root 10.0492 15.7658 4.45375 22.0383 -42.52 -0.654896
lowerback 25.6827 -5.05285 5.56165
upperback 14.5308 -5.87753 -1.40112
thorax 1.35458 -2.76506 -3.25327
lowerneck 1.15719 2.39884 2.85244
upperneck -10.0223 3.02792 -3.42657
head -3.33483 1.51569 -1.71682
rclavicle -4.05521e-014 1.19271e-015
rhumerus -46.0982 25.829 -86.508
rradius 89.931
rwrist 16.0185
rhand -48.2752 9.56009
rfingers 7.12502
rthumb -20.9329 -19.3304
lclavicle -4.05521e-014 1.19271e-015
lhumerus 29.4633 -40.9798 58.4556
lradius 91.8232
lwrist 46.057
lhand -46.0804 5.35009
lfingers 7.12502
lthumb -18.823 34.4594
rfemur -66.2697 2.54882 28.3366
rtibia 59.1658
rfoot -18.215 -13.4245
rtoes 3.21116
lfemur -30.5329 11.8595 -23.3716
ltibia 78.9705
lfoot 0.352223 -18.3365
ltoes -17.353
593
root 10.0147 15.7295 4.48779 21.9594 -42.4213 -0.921914
lowerback 26.29 -5.03061 5.59136
upperback 14.7318 -5.82288 -1.30646
thorax 1.32047 -2.74408 -3.15213
lowerneck 1.25714 2.38026 2.90749
upperneck -10.4724 2.99559 -3.4478
head -3.51072 1.4963 -1.74498
rclavicle 5.88403e-014 8.34896e-015
rhumerus -45.3961 26.1014 -86.1451
rradius 90.7007
rwrist 15.7623
rhand -47.9469 9.19427
rfingers 7.12502
rthumb -20.6174 -19.7308
lclavicle 5.88403e-014 8.34896e-015
lhumerus 30.9509 -40.2413 56.8898
lradius 91.9366
lwrist 46.6586
lhand -45.8306 6.08573
lfingers 7.12502
lthumb -18.5827 35.2181
rfemur -66.1266 2.60684 28.5925
rtibia 59.8061
rfoot -18.7466 -13.6346
rtoes 2.73282
lfemur -32.6118 12.1208 -22.8622
ltibia 82.3971
lfoot -1.06423 -18.1425
ltoes -18.5678
594
root 9.9812 15.6876 4.51865 21.8782 -42.3323 -1.23378
lowerback 26.7962 -5.03379 5.76093
upperback 15.0178 -5.78721 -1.33232
thorax 1.41054 -2.71567 -3.26734
lowerneck 1.39408 2.35719 3.06233
upperneck -11.0079 2.97043 -3.3782
head -3.72504 1.47196 -1.76363
rclavicle 4.21423e-014 -3.65764e-014
rhumerus -44.5848 26.2925 -85.9129
rradius 91.5042
rwrist 15.5082
rhand -47.5972 8.81344
rfingers 7.12502
rthumb -20.2813 -20.1477
lclavicle 4.21423e-014 -3.65764e-014
lhumerus 32.6193 -39.4378 55.0044
lradius 92.0742
lwrist 47.2983
lhand -45.5787 6.81879
lfingers 7.12502
lthumb -18.3404 35.9742
rfemur -65.9823 2.67125 28.903
rtibia 60.4909
rfoot -19.3004 -13.8461
rtoes 2.25604
lfemur -34.7861 12.4606 -22.3093
ltibia 85.8823
lfoot -2.57366 -17.7407
ltoes -19.8197
595
root 9.94839 15.6404 4.54719 21.7849 -42.251 -1.58413
lowerback 27.2516 -5.06297 6.03627
upperback 15.3607 -5.77159 -1.45027
thorax 1.57573 -2.68374 -3.54427
lowerneck 1.57299 2.33402 3.28351
upperneck -11.6084 2.95827 -3.23461
head -3.97265 1.4464 -1.77207
rclavicle -2.14687e-014 -1.03368e-014
rhumerus -43.7005 26.4403 -85.7817
rradius 92.3428
rwrist 15.2612
rhand -47.2298 8.41409
rfingers 7.12502
rthumb -19.9282 -20.5841
lclavicle -2.14687e-014 -1.03368e-014
lhumerus 34.3856 -38.5533 52.9085
lradius 92.2344
lwrist 47.9733
lhand -45.3425 7.52901
lfingers 7.12502
lthumb -18.1132 36.7056
rfemur -65.8295 2.7363 29.2604
rtibia 61.2238
rfoot -19.877 -14.0518
rtoes 1.80364
lfemur -37.0378 12.8781 -21.7179
ltibia 89.3893
lfoot -4.1549 -17.0934
ltoes -21.0403
596
root 9.91655 15.5878 4.57389 21.6912 -42.1861 -1.97438
lowerback 27.7131 -5.0973 6.36241
upperback 15.7234 -5.75354 -1.61159
thorax 1.75916 -2.64347 -3.90002
lowerneck 1.77111 2.30799 3.5487
upperneck -12.2386 2.95228 -3.05481
head -4.23761 1.41774 -1.77727
rclavicle -1.11319e-014 7.15625e-014
rhumerus -42.7803 26.5647 -85.6908
rradius 93.2236
rwrist 15.0396
rhand -46.8546 7.93837
rfingers 7.12502
rthumb -19.5675 -21.0969
lclavicle -1.11319e-014 7.15625e-014
lhumerus 36.1873 -37.5918 50.7178
lradius 92.414
lwrist 48.6874
lhand -45.1601 8.18377
lfingers 7.12502
lthumb -17.9377 37.3766
rfemur -65.6806 2.80723 29.6613
rtibia 62.0055
rfoot -20.469 -14.2449
rtoes 1.40086
lfemur -39.3716 13.3811 -21.0957
ltibia 92.8834
lfoot -5.74983 -16.2111
ltoes -22.1536
